<svg width="1280" height="320" viewBox="0 0 1280 320" fill="none" xmlns="http://www.w3.org/2000/svg">
  <defs>
    <radialGradient id="bg" cx="48%" cy="42%" r="75%">
      <stop offset="0%" stop-color="#1F1A29"/>
      <stop offset="100%" stop-color="#0F0D14"/>
    </radialGradient>
    <linearGradient id="chip" x1="64" y1="60" x2="250" y2="240" gradientUnits="userSpaceOnUse">
      <stop offset="0%" stop-color="#252032"/>
      <stop offset="100%" stop-color="#14111D"/>
    </linearGradient>
    <linearGradient id="mark" x1="86" y1="78" x2="236" y2="246" gradientUnits="userSpaceOnUse">
      <stop offset="0%" stop-color="#FF9E7A"/>
      <stop offset="52%" stop-color="#FF5959"/>
      <stop offset="100%" stop-color="#D81E58"/>
    </linearGradient>
    <linearGradient id="title" x1="320" y1="96" x2="675" y2="212" gradientUnits="userSpaceOnUse">
      <stop offset="0%" stop-color="#FFD6C7"/>
      <stop offset="50%" stop-color="#FF8E77"/>
      <stop offset="100%" stop-color="#FF5F77"/>
    </linearGradient>
  </defs>

  <rect width="1280" height="320" fill="url(#bg)"/>
  <rect x="0" y="0" width="1280" height="1" fill="#FFFFFF" opacity="0.12"/>
  <rect x="0" y="319" width="1280" height="1" fill="#FFFFFF" opacity="0.08"/>

  <rect x="48" y="48" width="208" height="208" rx="48" fill="url(#chip)"/>
  <rect x="48" y="48" width="208" height="208" rx="48" stroke="#FFFFFF" stroke-opacity="0.14"/>
  <path d="M 108 78 L 216 160 L 108 242 L 54 242 L 108 197 L 63 197 L 117 160 L 63 123 L 108 123 L 54 78 Z" fill="url(#mark)"/>

  <text x="300" y="152" font-family="-apple-system, BlinkMacSystemFont, 'SF Pro Display', 'Segoe UI', sans-serif" font-size="72" font-weight="700" fill="url(#title)" letter-spacing="-1">Nimble</text>
  <text x="302" y="194" font-family="-apple-system, BlinkMacSystemFont, 'SF Pro Text', 'Segoe UI', sans-serif" font-size="22" font-weight="400" fill="#A195B5" letter-spacing="0.4">A fast, command-driven desktop launcher</text>

  <circle cx="1136" cy="82" r="2" fill="#FF8E77" opacity="0.28"/>
  <circle cx="1180" cy="118" r="1.5" fill="#FF5F77" opacity="0.22"/>
  <circle cx="1108" cy="208" r="1.4" fill="#FFB49B" opacity="0.14"/>
  <circle cx="1210" cy="244" r="2.2" fill="#FF5F77" opacity="0.12"/>
</svg>